<svg xmlns="http://www.w3.org/2000/svg" viewBox="0 0 250 43.813">
  <defs>
    <style>
      .cls-1 {
        fill: #fff;
      }
    </style>
  </defs>
  <g id="logo_spectacles" transform="translate(0.07 0.02)">
    <g id="_Groupe_" data-name="&lt;Groupe&gt;" transform="translate(-0.07 -0.02)">
      <g id="_Groupe_2" data-name="&lt;Groupe&gt;" transform="translate(23.635 0)">
        <path id="Tracé_757" data-name="Tracé 757" class="cls-1" d="M-269.081-127.47l-18.088-17.473a.484.484,0,0,0-.334-.176.3.3,0,0,0-.2.109.3.3,0,0,0-.065.222.576.576,0,0,0,.093.3,15.184,15.184,0,0,1,3.09,8.659c0,3.667-2.123,6.494-5.727,6.494a5.769,5.769,0,0,1-5.452-5.715,7.887,7.887,0,0,1,2.816-5.6,1.744,1.744,0,0,0,.537-1.248c0-2.042-3.634-4.532-7.882-4.532-7.079,0-9.853,10.026-9.853,21.975s2.762,21.838,9.853,21.838c4.249,0,7.873-2.484,7.882-4.526a1.728,1.728,0,0,0-.537-1.245,7.929,7.929,0,0,1-2.816-5.6,5.769,5.769,0,0,1,5.452-5.718c3.6,0,5.727,2.836,5.727,6.494a15.26,15.26,0,0,1-3.09,8.677.564.564,0,0,0-.093.3.3.3,0,0,0,.063.224.3.3,0,0,0,.205.11.469.469,0,0,0,.334-.173l18.088-17.467a3.75,3.75,0,0,0,1.493-2.962A3.717,3.717,0,0,0-269.081-127.47Z" transform="translate(310.15 146.43)"/>
      </g>
      <path id="_Tracé_transparent_" data-name="&lt;Tracé transparent&gt;" class="cls-1" d="M-369.717-141.846a.475.475,0,0,1,.319-.164.3.3,0,0,1,.226.1.3.3,0,0,1,.072.237.534.534,0,0,1-.158.34c-4.24,5.273-7.33,11.429-7.33,19.984s3.075,14.573,7.318,19.846a.532.532,0,0,1,.158.34.3.3,0,0,1-.073.237.3.3,0,0,1-.226.1.463.463,0,0,1-.32-.161l-18.088-17.473a3.747,3.747,0,0,1-1.493-2.956,3.683,3.683,0,0,1,1.493-2.956l18.088-17.476" transform="translate(389.31 143.33)"/>
    </g>
    <path id="Tracé_758" data-name="Tracé 758" class="cls-1" d="M-108.906-93.382a13.977,13.977,0,0,1-8.082-2.577,1.974,1.974,0,0,1-.791-1.576,1.92,1.92,0,0,1,.573-1.374,1.92,1.92,0,0,1,1.383-.552,2.009,2.009,0,0,1,1.194.385,9.694,9.694,0,0,0,5.828,2.033c2.135,0,3.5-.914,3.5-2.389v-.063c0-1.493-.973-2.144-4.619-3.078-4.777-1.206-7.025-2.478-7.025-6.413v-.063c0-3.777,2.908-6.315,7.324-6.315a12.371,12.371,0,0,1,6.772,1.9,1.908,1.908,0,0,1,.914,1.66,1.929,1.929,0,0,1-.581,1.374,1.929,1.929,0,0,1-1.387.549,2.019,2.019,0,0,1-1.075-.3,9.285,9.285,0,0,0-4.712-1.514c-2.3,0-3.072,1.194-3.072,2.212v.063c0,1.738,1.335,2.251,4.932,3.174,4.156,1.084,6.709,2.517,6.709,6.294v.063C-101.126-95.875-104.111-93.382-108.906-93.382Z" transform="translate(198.782 124.62)"/>
    <path id="Tracé_759" data-name="Tracé 759" class="cls-1" d="M-45.91-76.431A2.09,2.09,0,0,1-48-78.521V-95.946a2.09,2.09,0,0,1,2.09-2.09,2.09,2.09,0,0,1,2.09,2.09v1.111l.567-.729a5.823,5.823,0,0,1,5.01-2.607,6.909,6.909,0,0,1,5.034,2.162,8.721,8.721,0,0,1,2.227,6.249v.063c0,5.751-3.759,8.375-7.3,8.375a6.179,6.179,0,0,1-5.01-2.389l-.528-.642v5.837A2.09,2.09,0,0,1-45.91-76.431Zm6.4-18.276c-2.493,0-4.314,2.123-4.314,4.947v.063c0,2.816,1.821,4.938,4.314,4.938s4.344-2.135,4.344-4.947v-.054C-35.161-92.584-36.995-94.707-39.506-94.707Z" transform="translate(149.837 112.559)"/>
    <path id="Tracé_760" data-name="Tracé 760" class="cls-1" d="M28.536-81.224c-4.992,0-8.536-3.449-8.536-8.384v-.063a8.093,8.093,0,0,1,8.062-8.45,7.729,7.729,0,0,1,7.817,7.844,1.9,1.9,0,0,1-1.9,2.045h-9.8l.078.3a4.187,4.187,0,0,0,4.4,3.5,5.8,5.8,0,0,0,3.562-1.194,1.493,1.493,0,0,1,.982-.325,1.514,1.514,0,0,1,1.118.453,1.514,1.514,0,0,1,.432,1.126,1.579,1.579,0,0,1-.558,1.194,8.506,8.506,0,0,1-5.655,1.956Zm-.415-13.669c-2.045,0-3.514,1.493-3.932,3.881l-.06.391H32l-.045-.388C31.644-93.409,30.208-94.892,28.121-94.892Z" transform="translate(102.14 112.524)"/>
    <path id="Tracé_761" data-name="Tracé 761" class="cls-1" d="M93.407-81.224a8.294,8.294,0,0,1-5.971-2.42A8.294,8.294,0,0,1,85-89.608v-.063a8.253,8.253,0,0,1,8.471-8.45,8.075,8.075,0,0,1,5.524,1.809,1.818,1.818,0,0,1,.636,1.4,1.854,1.854,0,0,1-1.869,1.833,1.965,1.965,0,0,1-1.194-.406,5,5,0,0,0-3.237-1.129,4.655,4.655,0,0,0-4.449,4.885v.063a4.661,4.661,0,0,0,4.634,4.938,5.222,5.222,0,0,0,3.356-1.224,2.012,2.012,0,0,1,1.12-.373,1.714,1.714,0,0,1,1.222.509,1.714,1.714,0,0,1,.494,1.228,1.678,1.678,0,0,1-.57,1.284A8.012,8.012,0,0,1,93.407-81.224Z" transform="translate(56.548 112.524)"/>
    <path id="Tracé_762" data-name="Tracé 762" class="cls-1" d="M149.478-91.125c-3.177,0-4.6-1.466-4.6-4.747v-8.136h-.442A1.791,1.791,0,0,1,142.7-105.8a1.791,1.791,0,0,1,1.738-1.791h.442v-2.418a2.09,2.09,0,0,1,2.09-2.09,2.09,2.09,0,0,1,2.09,2.09v2.418h2.389a1.791,1.791,0,0,1,1.738,1.791,1.791,1.791,0,0,1-1.738,1.791H149.06v7.354c0,1.281.618,1.929,1.836,1.929a2.426,2.426,0,0,0,.37-.021l.182-.006a1.678,1.678,0,0,1,1.675,1.678,1.645,1.645,0,0,1-1.033,1.493A6.711,6.711,0,0,1,149.478-91.125Z" transform="translate(16.075 122.33)"/>
    <path id="Tracé_763" data-name="Tracé 763" class="cls-1" d="M193.416-81C190.687-81,188-82.5,188-85.856v-.063c0-1.89.788-5.076,6.419-5.076a11.46,11.46,0,0,1,3.971.675l.358.134v-.7c0-2.138-1.376-3.332-3.882-3.332a11.211,11.211,0,0,0-3.374.484,1.744,1.744,0,0,1-.6.113,1.642,1.642,0,0,1-1.206-.466,1.642,1.642,0,0,1-.5-1.195,1.687,1.687,0,0,1,1.093-1.571,14.38,14.38,0,0,1,5.255-.86c2.436,0,4.213.6,5.4,1.791s1.684,2.9,1.684,5.153v7.65a1.929,1.929,0,0,1-.553,1.412,1.929,1.929,0,0,1-1.4.576,1.765,1.765,0,0,1-1.926-1.675v-.809l-.5.576A6.134,6.134,0,0,1,193.416-81Zm2.066-7.712c-2.248,0-3.6.979-3.6,2.619v.063c0,1.418,1.108,2.335,2.869,2.335,2.374,0,4-1.335,4-3.245v-1.036l-.137-.081A7.542,7.542,0,0,0,195.482-88.714Z" transform="translate(-15.7 112.239)"/>
    <path id="Tracé_764" data-name="Tracé 764" class="cls-1" d="M258.512-81.217A8.382,8.382,0,0,1,250-89.6v-.063a8.346,8.346,0,0,1,8.575-8.447,8.22,8.22,0,0,1,5.577,1.809,1.812,1.812,0,0,1,.663,1.4,1.845,1.845,0,0,1-1.857,1.833,1.947,1.947,0,0,1-1.195-.409,4.873,4.873,0,0,0-3.186-1.128,4.617,4.617,0,0,0-4.4,4.885v.063a4.625,4.625,0,0,0,4.589,4.938A5.163,5.163,0,0,0,262.1-85.94a1.964,1.964,0,0,1,1.108-.373,1.708,1.708,0,0,1,1.22.5,1.708,1.708,0,0,1,.5,1.222A1.738,1.738,0,0,1,264.3-83.3,8.153,8.153,0,0,1,258.512-81.217Z" transform="translate(-59.188 112.517)"/>
    <path id="Tracé_765" data-name="Tracé 765" class="cls-1" d="M316.09-95.433a2.09,2.09,0,0,1-2.09-2.09v-18.5a2.09,2.09,0,0,1,2.09-2.09,2.09,2.09,0,0,1,2.09,2.09v18.5A2.09,2.09,0,0,1,316.09-95.433Z" transform="translate(-104.079 126.546)"/>
    <path id="Tracé_766" data-name="Tracé 766" class="cls-1" d="M350.494-81.217A8.079,8.079,0,0,1,342-89.6v-.063c0-4.816,3.457-8.447,8.023-8.447a7.71,7.71,0,0,1,7.8,7.844,1.916,1.916,0,0,1-1.92,2.045h-9.805l.087.3a4.187,4.187,0,0,0,4.4,3.5,5.8,5.8,0,0,0,3.562-1.194,1.493,1.493,0,0,1,.982-.325,1.513,1.513,0,0,1,1.118.453,1.514,1.514,0,0,1,.432,1.126,1.573,1.573,0,0,1-.537,1.194A8.453,8.453,0,0,1,350.494-81.217Zm-.457-13.669c-2.045,0-3.514,1.493-3.932,3.881l-.06.391h7.873L353.874-91C353.558-93.4,352.122-94.885,350.038-94.885Z" transform="translate(-123.719 112.517)"/>
    <path id="Tracé_767" data-name="Tracé 767" class="cls-1" d="M411.51-81.139a11.262,11.262,0,0,1-6.136-1.869,1.6,1.6,0,0,1-.755-1.379,1.556,1.556,0,0,1,.459-1.13,1.556,1.556,0,0,1,1.133-.452,1.552,1.552,0,0,1,.785.206,9.157,9.157,0,0,0,4.7,1.55c2.09,0,2.3-1.087,2.3-1.553v-.063c0-1.138-1.406-1.556-3.045-2.039-.206-.063-.355-.125-.573-.188-2.5-.729-4.741-1.818-4.741-4.759v-.063c0-3.475,2.878-5.031,5.786-5.031a11.322,11.322,0,0,1,5.043,1.254,1.627,1.627,0,0,1,.949,1.52,1.588,1.588,0,0,1-.479,1.131,1.588,1.588,0,0,1-1.142.451,1.463,1.463,0,0,1-.75-.188,9.178,9.178,0,0,0-3.771-1.1c-1.517,0-2.054.785-2.054,1.457v.063c0,1.063,1.365,1.526,3.09,2.108.173.06.281.119.46.179,2.362.791,4.81,1.869,4.81,4.706v.063C417.572-84.722,417.04-81.139,411.51-81.139Z" transform="translate(-167.642 112.377)"/>
  </g>
</svg>
