<svg xmlns="http://www.w3.org/2000/svg" viewBox="0 0 20.898 20">
  <defs>
    <style>
      .cls-1 {
        fill: #ffa74a;
      }
    </style>
  </defs>
  <path id="picto_fav_on" class="cls-1" d="M15.14,30.811l-4.69-2.461-4.69,2.461a1.631,1.631,0,0,1-2.366-1.718l.9-5.211L.495,20.191a1.629,1.629,0,0,1,.9-2.78l5.244-.761,2.345-4.742a1.632,1.632,0,0,1,2.925,0h0l2.345,4.742,5.244.761a1.629,1.629,0,0,1,.9,2.78L16.61,23.882l.9,5.211a1.631,1.631,0,0,1-2.366,1.718ZM1.63,19.017Z" transform="translate(0 -11)"/>
</svg>
