<svg xmlns="http://www.w3.org/2000/svg" viewBox="0 0 27.25 15">
  <defs>
    <style>
      .cls-1 {
        opacity: 0.9;
      }

      .cls-2 {
        fill: #fff;
      }
    </style>
  </defs>
  <g id="Groupe_803" data-name="Groupe 803" class="cls-1" transform="translate(-282 -35)">
    <g id="Groupe_802" data-name="Groupe 802" transform="translate(236 -264)">
      <path id="Tracé_946" data-name="Tracé 946" class="cls-2" d="M.75,0h3.5A.75.75,0,0,1,5,.75V5.5a.75.75,0,0,1-.75.75H.75A.75.75,0,0,1,0,5.5V.75A.75.75,0,0,1,.75,0Z" transform="translate(62 299)"/>
      <path id="Tracé_949" data-name="Tracé 949" class="cls-2" d="M.75,0h3.5A.75.75,0,0,1,5,.75v6a.75.75,0,0,1-.75.75H.75A.75.75,0,0,1,0,6.75v-6A.75.75,0,0,1,.75,0Z" transform="translate(62 306.5)"/>
      <path id="Tracé_948" data-name="Tracé 948" class="cls-2" d="M.75,0h3.5A.75.75,0,0,1,5,.75v3.5A.75.75,0,0,1,4.25,5H.75A.75.75,0,0,1,0,4.25V.75A.75.75,0,0,1,.75,0Z" transform="translate(68.25 299)"/>
      <path id="Tracé_947" data-name="Tracé 947" class="cls-2" d="M.75,0h3.5A.75.75,0,0,1,5,.75V8a.75.75,0,0,1-.75.75H.75A.75.75,0,0,1,0,8V.75A.75.75,0,0,1,.75,0Z" transform="translate(68.25 305.25)"/>
    </g>
    <path id="Tracé_942" data-name="Tracé 942" class="cls-2" d="M.75,0H10.5a.75.75,0,0,1,.75.75v13.5a.75.75,0,0,1-.75.75H.75A.75.75,0,0,1,0,14.25V.75A.75.75,0,0,1,.75,0Z" transform="translate(282 35)"/>
  </g>
</svg>
