<svg xmlns="http://www.w3.org/2000/svg" viewBox="0 0 42.464 35">
  <defs>
    <style>
      .cls-1 {
        fill: #e4e4e4;
      }
    </style>
  </defs>
  <g id="picto_photo" transform="translate(0 -45)">
    <path id="Tracé_823" data-name="Tracé 823" class="cls-1" d="M38.369,80H4.1A4.126,4.126,0,0,1,0,75.853V55.948A4.126,4.126,0,0,1,4.1,51.8h8.358l2.566-4.67A4.089,4.089,0,0,1,18.6,45h5.268a4.09,4.09,0,0,1,3.579,2.131l2.566,4.67h8.358a4.126,4.126,0,0,1,4.1,4.147V75.853A4.126,4.126,0,0,1,38.369,80ZM4.1,55.118a.806.806,0,0,0-.778.829V75.853a.806.806,0,0,0,.778.829H38.369a.806.806,0,0,0,.778-.829V55.948a.806.806,0,0,0-.778-.829H29.03a1.659,1.659,0,0,1-1.454-.86l-3.038-5.53a.773.773,0,0,0-.671-.411H18.6a.773.773,0,0,0-.671.411l-3.038,5.53a1.659,1.659,0,0,1-1.454.86Z" transform="translate(0 0)"/>
    <path id="Tracé_824" data-name="Tracé 824" class="cls-1" d="M182.635,230.27a6.635,6.635,0,1,1,6.635-6.635A6.643,6.643,0,0,1,182.635,230.27Zm0-9.953a3.318,3.318,0,1,0,3.318,3.318A3.321,3.321,0,0,0,182.635,220.318Z" transform="translate(-161.403 -157.735)"/>
  </g>
</svg>
