<svg xmlns="http://www.w3.org/2000/svg" viewBox="0 0 35.355 35.355">
  <defs>
    <style>
      .cls-1 {
        fill: #fff;
      }
    </style>
  </defs>
  <path id="picto_ajouter" class="cls-1" d="M12.5,0A12.5,12.5,0,1,0,25,12.5,12.493,12.493,0,0,0,12.5,0Zm0,23.047A10.547,10.547,0,1,1,23.047,12.5,10.541,10.541,0,0,1,12.5,23.047ZM16.777,9.6l-2.9,2.9,2.9,2.9A.977.977,0,1,1,15.4,16.777l-2.9-2.9-2.9,2.9A.977.977,0,1,1,8.223,15.4l2.9-2.9-2.9-2.9A.977.977,0,1,1,9.6,8.223l2.9,2.9,2.9-2.9A.977.977,0,1,1,16.777,9.6Z" transform="translate(0 17.678) rotate(-45)"/>
</svg>
