<svg xmlns="http://www.w3.org/2000/svg" viewBox="0 0 20 13.281">
  <defs>
    <style>
      .cls-1 {
        fill: #c4c4c4;
      }
    </style>
  </defs>
  <path id="email" class="cls-1" d="M18.047,86H1.953A1.955,1.955,0,0,0,0,87.953v9.375a1.955,1.955,0,0,0,1.953,1.953H18.047A1.955,1.955,0,0,0,20,97.328V87.953A1.956,1.956,0,0,0,18.047,86Zm-1.514,1.563L10,91.715,3.467,87.563Zm1.514,10.156H1.953a.391.391,0,0,1-.391-.391V88.2l8.018,5.1a.781.781,0,0,0,.838,0l8.018-5.1v9.125A.391.391,0,0,1,18.047,97.719Z" transform="translate(0 -86)"/>
</svg>
