<svg xmlns="http://www.w3.org/2000/svg" viewBox="0 0 20 10.83">
  <defs>
    <style>
      .cls-1 {
        fill: #c4c4c4;
      }
    </style>
  </defs>
  <g id="oeil" transform="translate(0 -104.721)">
    <g id="Groupe_3173" data-name="Groupe 3173" transform="translate(0 104.721)">
      <path id="Tracé_2820" data-name="Tracé 2820" class="cls-1" d="M19.656,109.7a14.936,14.936,0,0,0-2.671-2.487A11.884,11.884,0,0,0,10,104.721a11.884,11.884,0,0,0-6.986,2.493A14.938,14.938,0,0,0,.343,109.7L0,110.136l.344.434a14.938,14.938,0,0,0,2.671,2.487A11.884,11.884,0,0,0,10,115.551a11.884,11.884,0,0,0,6.986-2.493,14.935,14.935,0,0,0,2.671-2.487l.344-.434ZM10,113.929a3.8,3.8,0,0,1-3.673-4.743l-.866-.146a4.666,4.666,0,0,0,1.368,4.518,12.293,12.293,0,0,1-2.953-1.607,14.717,14.717,0,0,1-2.051-1.816,14.722,14.722,0,0,1,2.051-1.816,12.3,12.3,0,0,1,2.953-1.607l.581.655A3.793,3.793,0,1,1,10,113.929Zm6.124-1.977a12.3,12.3,0,0,1-2.953,1.607,4.662,4.662,0,0,0,0-6.847,12.3,12.3,0,0,1,2.953,1.607,14.721,14.721,0,0,1,2.051,1.816A14.712,14.712,0,0,1,16.124,111.952Z" transform="translate(0 -104.721)"/>
      <path id="Tracé_2821" data-name="Tracé 2821" class="cls-1" d="M170.864,172.542a2.528,2.528,0,1,0,.666-1.082l1.245,1.4Z" transform="translate(-163.278 -167.865)"/>
    </g>
  </g>
</svg>
