<svg xmlns="http://www.w3.org/2000/svg" viewBox="0 0 20 16.406">
  <defs>
    <style>
      .cls-1 {
        fill: #fff;
      }
    </style>
  </defs>
  <g id="picto_panier" transform="translate(-292 -35)">
    <path id="_013-shopping-cart" data-name="013-shopping-cart" class="cls-1" d="M19.844,48.34a.781.781,0,0,0-.625-.313H4.5l-.429-1.466A.781.781,0,0,0,3.324,46H.781a.781.781,0,1,0,0,1.563H2.739L5.856,58.209a.781.781,0,0,0,.75.562h9.926a.781.781,0,0,0,.75-.562l2.687-9.181A.781.781,0,0,0,19.844,48.34Zm-3.9,8.868H7.191L4.961,49.59H18.176Zm-5.427,4.144A1.055,1.055,0,1,1,9.464,60.3,1.055,1.055,0,0,1,10.519,61.352Zm4.208,0A1.055,1.055,0,1,1,13.672,60.3,1.055,1.055,0,0,1,14.727,61.352Z" transform="translate(292 -11)"/>
  </g>
</svg>
