<svg xmlns="http://www.w3.org/2000/svg" viewBox="0 0 20 13.828">
  <defs>
    <style>
      .cls-1 {
        fill: #fff;
      }
    </style>
  </defs>
  <g id="picto_affichage" transform="translate(-295 -36)">
    <path id="_039-list" data-name="039-list" class="cls-1" d="M20,85.914a.781.781,0,0,1-.781.781H5.635a.781.781,0,1,1,0-1.562H19.219A.781.781,0,0,1,20,85.914ZM5.635,80.836H19.219a.781.781,0,1,0,0-1.562H5.635a.781.781,0,1,0,0,1.562ZM19.219,90.992H5.635a.781.781,0,0,0,0,1.563H19.219a.781.781,0,0,0,0-1.563ZM1.055,79a1.055,1.055,0,1,0,1.055,1.055A1.055,1.055,0,0,0,1.055,79Zm0,5.859a1.055,1.055,0,1,0,1.055,1.055A1.055,1.055,0,0,0,1.055,84.859Zm0,5.859a1.055,1.055,0,1,0,1.055,1.055A1.055,1.055,0,0,0,1.055,90.719Z" transform="translate(295 -43)"/>
  </g>
</svg>
