<svg xmlns="http://www.w3.org/2000/svg" viewBox="0 0 18.001 18">
  <defs>
    <style>
      .cls-1 {
        fill: #4d4d4d;
        fill-rule: evenodd;
      }
    </style>
  </defs>
  <path id="picto_loupe_gris" class="cls-1" d="M17.671,16.167l-4.928-4.93a6.976,6.976,0,0,0,1.35-4.156A7.112,7.112,0,0,0,7.021,0,6.989,6.989,0,0,0,0,7.031a7.113,7.113,0,0,0,7.072,7.082,6.954,6.954,0,0,0,4.168-1.365l.005,0,4.924,4.926a1.063,1.063,0,1,0,1.5-1.5ZM7.067,12.7A5.69,5.69,0,0,1,1.409,7.036,5.593,5.593,0,0,1,7.026,1.411a5.69,5.69,0,0,1,5.657,5.665A5.593,5.593,0,0,1,7.067,12.7Z"/>
</svg>
