<svg xmlns="http://www.w3.org/2000/svg" viewBox="0 0 21.265 24.526">
  <defs>
    <style>
      .cls-1 {
        fill: none;
        stroke: #c4c4c4;
      }
    </style>
  </defs>
  <path id="picto_notif_off" class="cls-1" d="M81.222,17.142l-1.965-2.963V7.5A5.71,5.71,0,0,0,74.486,1.8c0-1.321-1.617-1.321-1.617,0A5.71,5.71,0,0,0,68.1,7.5v6.682l-1.965,2.963a.808.808,0,0,0,.674,1.255h3.834a3.117,3.117,0,0,0,6.073,0h3.834a.808.808,0,0,0,.674-1.255Zm-7.544,2.053a1.508,1.508,0,0,1-1.313-.8h2.626A1.508,1.508,0,0,1,73.678,19.195ZM77.641,7.5Z" transform="matrix(0.966, 0.259, -0.259, 0.966, -57.737, -17.25)"/>
</svg>
