<svg xmlns="http://www.w3.org/2000/svg" viewBox="0 0 21.67 20.538">
  <defs>
    <style>
      .cls-1 {
        fill: #ed0066;
        stroke: #ed0066;
        stroke-width: 0.5px;
      }
    </style>
  </defs>
  <g id="picto_restaurant_on" transform="translate(-175.739 -394.712)">
    <path id="Tracé_798" data-name="Tracé 798" class="cls-1" d="M348.53,40.475a.379.379,0,0,0-.536,0l-3.933,3.932a.379.379,0,0,0,.536.536l3.933-3.932A.379.379,0,0,0,348.53,40.475Z" transform="translate(-153.761 355.741)"/>
    <path id="Tracé_799" data-name="Tracé 799" class="cls-1" d="M373.92,65.99l-3.932,3.932a.379.379,0,0,0,.536.536l3.932-3.932C374.6,66.379,374.068,65.842,373.92,65.99Z" transform="translate(-178.618 331.278)"/>
    <path id="Tracé_800" data-name="Tracé 800" class="cls-1" d="M42.16,101.044l4.882-4.882a.379.379,0,0,0-.536-.536l-4.882,4.882a2.014,2.014,0,0,1-2.288.393.379.379,0,0,0-.447.09L37.23,102.86l0,0,0,0-7.169,8.077-.005.006c-.024.028-.046.052-.069.075a1.214,1.214,0,1,1-1.716-1.717c.022-.022.046-.044.074-.068l.006-.005,4.482-3.978a.379.379,0,0,0-.5-.567l-4.479,3.975c-.043.037-.081.072-.117.108a1.972,1.972,0,0,0,2.789,2.79c.036-.036.072-.075.108-.117l5.463-6.155,5.463,6.155c.036.042.071.081.108.117a1.972,1.972,0,0,0,2.79-2.789c-.036-.036-.075-.072-.117-.108l-6.286-5.58,1.23-1.386A2.775,2.775,0,0,0,42.16,101.044Zm1.673,8.187.006.005c.028.024.052.046.075.069a1.214,1.214,0,1,1-1.717,1.716c-.022-.022-.045-.047-.068-.075l-.005-.006L36.6,104.715l.946-1.066Z" transform="translate(149.968 302.865)"/>
    <path id="Tracé_801" data-name="Tracé 801" class="cls-1" d="M17.63,13.7a.379.379,0,0,0-.536,0l-4.882,4.882a2.774,2.774,0,0,0-.652,2.883l-1.5,1.333L8.614,21.514a3.815,3.815,0,0,0-.71-4.437,8.635,8.635,0,0,0-3.837-2.331A3.314,3.314,0,0,0,.8,15.387a3.314,3.314,0,0,0-.641,3.271A8.635,8.635,0,0,0,2.486,22.5a3.815,3.815,0,0,0,4.437.71l1.43,1.611a.379.379,0,0,0,.535.032l3.377-3a.379.379,0,0,0,.09-.447,2.014,2.014,0,0,1,.393-2.288l4.882-4.882A.379.379,0,0,0,17.63,13.7ZM8.668,24.029,7.288,22.474a.379.379,0,0,0-.483-.071,3.06,3.06,0,0,1-3.783-.444A7.874,7.874,0,0,1,.89,18.473a2.6,2.6,0,0,1,.442-2.549,2.6,2.6,0,0,1,2.549-.442,7.873,7.873,0,0,1,3.486,2.132A3.06,3.06,0,0,1,7.811,21.4a.379.379,0,0,0,.071.483l1.6,1.424Z" transform="translate(176 381.414)"/>
  </g>
</svg>
