<svg xmlns="http://www.w3.org/2000/svg" viewBox="0 0 20 20">
  <defs>
    <style>
      .cls-1 {
        fill: #ffa74a;
      }
    </style>
  </defs>
  <path id="picto_partage_off" class="cls-1" d="M16.522,13.044a3.473,3.473,0,0,0-2.681,1.264L6.86,10.818a3.484,3.484,0,0,0,0-1.634l6.981-3.491a3.466,3.466,0,1,0-.7-1.4L6.159,7.787a3.478,3.478,0,1,0,0,4.428l6.981,3.491a3.479,3.479,0,1,0,3.381-2.661Zm0-11.481a1.916,1.916,0,1,1-1.916,1.916A1.918,1.918,0,0,1,16.522,1.564ZM3.478,11.917A1.916,1.916,0,1,1,5.394,10,1.918,1.918,0,0,1,3.478,11.917Zm13.043,6.522a1.916,1.916,0,1,1,1.916-1.916A1.918,1.918,0,0,1,16.522,18.439Z" transform="translate(0 -0.001)"/>
</svg>
