<svg xmlns="http://www.w3.org/2000/svg" viewBox="0 0 15.625 20">
  <defs>
    <style>
      .cls-1 {
        fill: #ed0066;
      }
    </style>
  </defs>
  <path id="picto_localisation_on" class="cls-1" d="M63.813,20a.781.781,0,0,1-.428-.128,19.838,19.838,0,0,1-3.677-3.313A13.666,13.666,0,0,1,56,7.667a7.814,7.814,0,0,1,15.625,0,13.666,13.666,0,0,1-3.707,8.892,19.838,19.838,0,0,1-3.677,3.313A.781.781,0,0,1,63.813,20Zm0-18.438a6.185,6.185,0,0,0-6.25,6.1c0,5.478,4.775,9.485,6.25,10.592,3.347-2.507,6.25-6.384,6.25-10.592A6.185,6.185,0,0,0,63.813,1.562Zm0,10.01a3.906,3.906,0,1,1,3.906-3.906A3.911,3.911,0,0,1,63.813,11.573Zm0-6.25a2.344,2.344,0,1,0,2.344,2.344A2.346,2.346,0,0,0,63.813,5.323Z" transform="translate(-56)"/>
</svg>
