<svg xmlns="http://www.w3.org/2000/svg" viewBox="0 0 15 15">
  <defs>
    <style>
      .cls-1 {
        fill: #fff;
      }
    </style>
  </defs>
  <path id="picto_modifier_blanc" class="cls-1" d="M14.049.951a3.255,3.255,0,0,0-4.6,0l-9.28,9.28a.588.588,0,0,0-.171.41s0,0,0,0v3.769A.586.586,0,0,0,.586,15H4.355a.589.589,0,0,0,.414-.172l9.28-9.28A3.255,3.255,0,0,0,14.049.951ZM5.857,9.143a.586.586,0,0,0,.829,0l3.935-3.935,1.056,1.056L4.355,13.586l-2.94-2.94L8.737,3.323,9.792,4.379,5.857,8.314A.586.586,0,0,0,5.857,9.143ZM1.172,12.06,2.94,13.828H1.172ZM13.221,4.72l-.715.715-2.94-2.94.715-.715a2.079,2.079,0,1,1,2.94,2.94Z" transform="translate(0 0)"/>
</svg>
