<svg xmlns="http://www.w3.org/2000/svg" viewBox="0 0 15 18.286">
  <defs>
    <style>
      .cls-1 {
        fill: #c4c4c4;
      }
    </style>
  </defs>
  <path id="unlock" class="cls-1" d="M60.286,7.065h-.714V6.071A6.072,6.072,0,0,0,47.906,3.708a.714.714,0,1,0,1.316.557,4.644,4.644,0,0,1,8.921,1.807v.993H46.714A.714.714,0,0,0,46,7.779v9.793a.714.714,0,0,0,.714.714H60.286A.714.714,0,0,0,61,17.571V7.779A.714.714,0,0,0,60.286,7.065Zm-.714,9.793H47.429V8.493H59.571ZM53.5,10.532a2.143,2.143,0,1,0,2.143,2.143A2.145,2.145,0,0,0,53.5,10.532Zm0,2.857a.714.714,0,1,1,.714-.714A.715.715,0,0,1,53.5,13.389Z" transform="translate(-46)"/>
</svg>
