<svg xmlns="http://www.w3.org/2000/svg" viewBox="0 0 20 20">
  <defs>
    <style>
      .cls-1 {
        fill: url(#linear-gradient);
      }
    </style>
    <linearGradient id="linear-gradient" y1="1.249" x2="1" y2="1.249" gradientUnits="objectBoundingBox">
      <stop offset="0" stop-color="#8B6BF4"/>
      <stop offset="1" stop-color="#8B6BF4"/>
    </linearGradient>
  </defs>
  <path id="picto_parametre" class="cls-1" d="M20,5.365a2.315,2.315,0,0,0-1.53-2.175V.781a.781.781,0,0,0-1.562,0V3.189a2.311,2.311,0,0,0,0,4.35V19.219a.781.781,0,0,0,1.563,0V7.54A2.315,2.315,0,0,0,20,5.365Zm-2.311.749a.749.749,0,1,1,.749-.749A.75.75,0,0,1,17.689,6.113ZM10.781,12.46V.781a.781.781,0,0,0-1.562,0V12.46a2.311,2.311,0,0,0,0,4.35v2.408a.781.781,0,0,0,1.563,0V16.811a2.311,2.311,0,0,0,0-4.35ZM10,15.384a.749.749,0,1,1,.749-.749A.75.75,0,0,1,10,15.384ZM3.093,3.189V.781a.781.781,0,0,0-1.563,0V3.189a2.311,2.311,0,0,0,0,4.35V19.219a.781.781,0,0,0,1.563,0V7.54a2.311,2.311,0,0,0,0-4.35ZM2.311,6.113a.749.749,0,1,1,.749-.749A.75.75,0,0,1,2.311,6.113Z"/>
</svg>
