<svg xmlns="http://www.w3.org/2000/svg" viewBox="0 0 19.687 20">
  <defs>
    <style>
      .cls-1 {
        fill: #5A557B;
      }
    </style>
  </defs>
  <g id="picto_nav_event_grey" transform="translate(-91 -633)">
    <path id="Tracé_803" data-name="Tracé 803" class="cls-1" d="M40.119,55.607l-.307,1.823a.665.665,0,0,0,.963.7l1.639-.855,1.639.856a.665.665,0,0,0,.964-.7l-.307-1.823,1.319-1.294a.665.665,0,0,0-.368-1.133l-1.828-.271-.823-1.655a.665.665,0,0,0-1.191,0L41,52.909l-1.828.271a.665.665,0,0,0-.368,1.133Z" transform="translate(58.429 590.269)"/>
    <path id="Tracé_804" data-name="Tracé 804" class="cls-1" d="M18.678,2.126H16.584V.965A.965.965,0,0,0,15.619,0h-.153A.965.965,0,0,0,14.5.965V2.126H7.115V.965A.965.965,0,0,0,6.15,0H6a.965.965,0,0,0-.965.965V2.126H2.963A1.988,1.988,0,0,0,.977,4.112v13.9A1.989,1.989,0,0,0,2.963,20H18.678a1.989,1.989,0,0,0,1.986-1.986V4.112A1.989,1.989,0,0,0,18.678,2.126Zm-.259,15.629H3.222V6.933h15.2Z" transform="translate(90.023 633)"/>
  </g>
</svg>
