<svg xmlns="http://www.w3.org/2000/svg" viewBox="0 0 23.952 23.952">
  <defs>
    <style>
      .cls-1 {
        fill: #5A557B;
      }
    </style>
  </defs>
  <path id="picto_nav_billets_grey" class="cls-1" d="M11.99,13.256H8.421a3.008,3.008,0,0,0-3.006-3V3.76a3.008,3.008,0,0,0,3.006-3h3.57c0,.016,0,.032,0,.049a1.15,1.15,0,0,0,2.3,0c0-.016,0-.032,0-.049h9.494a2.982,2.982,0,0,0,.882,2.122,2.987,2.987,0,0,0,2.124.88v6.493a3.008,3.008,0,0,0-3.006,3H14.29a1.15,1.15,0,0,0-2.3,0Zm1.15-5.334a1.148,1.148,0,1,0,1.15,1.148A1.15,1.15,0,0,0,13.14,7.922Zm0-4.255a1.148,1.148,0,1,0,1.15,1.148A1.15,1.15,0,0,0,13.14,3.667Z" transform="translate(28.317 5.545) rotate(135)"/>
</svg>
