<svg xmlns="http://www.w3.org/2000/svg" viewBox="0 0 20.898 20">
  <defs>
    <style>
      .cls-1 {
        fill: url(#linear-gradient);
      }
    </style>
    <linearGradient id="linear-gradient" y1="1.249" x2="1" y2="1.249" gradientUnits="objectBoundingBox">
      <stop offset="0" stop-color="#C0426A"/>
      <stop offset="1" stop-color="#C0426A"/>
    </linearGradient>
  </defs>
  <path id="picto_fav_artiste" class="cls-1" d="M15.14,30.811l-4.69-2.461-4.69,2.461a1.631,1.631,0,0,1-2.366-1.718l.9-5.211L.495,20.191a1.629,1.629,0,0,1,.9-2.78l5.244-.761,2.345-4.742a1.632,1.632,0,0,1,2.925,0h0l2.345,4.742,5.244.761a1.629,1.629,0,0,1,.9,2.78L16.61,23.882l.9,5.211a1.631,1.631,0,0,1-2.366,1.718ZM1.638,19.026l4.1,3.986a.816.816,0,0,1,.235.723L5,29.364l5.067-2.659a.816.816,0,0,1,.759,0L15.9,29.364l-.967-5.63a.816.816,0,0,1,.235-.723l4.1-3.986L13.6,18.2a.816.816,0,0,1-.615-.446l-2.534-5.125L7.915,17.758A.816.816,0,0,1,7.3,18.2Zm17.633,0h0ZM1.63,19.017Zm17.64,0Zm-8.823-6.39Z" transform="translate(0 -11)"/>
</svg>
