<svg xmlns="http://www.w3.org/2000/svg" viewBox="0 0 20 13.047">
  <defs>
    <style>
      .cls-1 {
        fill: url(#linear-gradient);
      }
    </style>
    <linearGradient id="linear-gradient" y1="1.249" x2="1" y2="1.249" gradientUnits="objectBoundingBox">
      <stop offset="0" stop-color="#84ADF3"/>
      <stop offset="1" stop-color="#84ADF3"/>
    </linearGradient>
  </defs>
  <path id="picto_theme_nuit" class="cls-1" d="M15.394,102.047H4.606a4.61,4.61,0,0,1-2.32-8.592,6.519,6.519,0,0,1,12.122-.627h.986a4.609,4.609,0,0,1,0,9.219ZM8.47,90.563A4.969,4.969,0,0,0,3.692,94.2a.781.781,0,0,1-.412.495,3.048,3.048,0,0,0,1.326,5.79H15.394a3.047,3.047,0,0,0,0-6.094H13.881a.781.781,0,0,1-.737-.521A4.965,4.965,0,0,0,8.47,90.563Z" transform="translate(0 -89)"/>
</svg>
