<svg xmlns="http://www.w3.org/2000/svg" viewBox="0 0 17.188 20">
  <defs>
    <style>
      .cls-1 {
        fill: #ffa74a;
      }
    </style>
  </defs>
  <path id="picto_hotel_off" class="cls-1" d="M52.923,7.081,45.11.2a.781.781,0,0,0-1.033,0L36.265,7.081A.781.781,0,0,0,36,7.667V19.219a.781.781,0,0,0,.781.781H52.406a.781.781,0,0,0,.781-.781V7.667A.781.781,0,0,0,52.923,7.081ZM42.445,18.438V13.115h4.3v5.323h-4.3Zm9.18,0H48.3v-6.1a.781.781,0,0,0-.781-.781H41.664a.781.781,0,0,0-.781.781v6.1h-3.32V8.02l7.031-6.2,7.031,6.2Z" transform="translate(-36)"/>
</svg>
